<?xml version="1.0" encoding="UTF-8" standalone="no"?>
<!-- Created with Inkscape (http://www.inkscape.org/) -->

<svg
   xmlns:dc="http://purl.org/dc/elements/1.1/"
   xmlns:cc="http://creativecommons.org/ns#"
   xmlns:rdf="http://www.w3.org/1999/02/22-rdf-syntax-ns#"
   xmlns:svg="http://www.w3.org/2000/svg"
   xmlns="http://www.w3.org/2000/svg"
   xmlns:sodipodi="http://sodipodi.sourceforge.net/DTD/sodipodi-0.dtd"
   xmlns:inkscape="http://www.inkscape.org/namespaces/inkscape"
   width="210mm"
   height="297mm"
   viewBox="0 0 210 297"
   version="1.1"
   id="svg8"
   inkscape:version="0.92.4 5da689c313, 2019-01-14"
   sodipodi:docname="favicon.svg"
   inkscape:export-filename="/srv/http/pianoboard.github.io/images/favicon-196.png"
   inkscape:export-xdpi="24.380749"
   inkscape:export-ydpi="24.380749">
  <defs
     id="defs2" />
  <sodipodi:namedview
     id="base"
     pagecolor="#ffffff"
     bordercolor="#666666"
     borderopacity="1.0"
     inkscape:pageopacity="0.0"
     inkscape:pageshadow="2"
     inkscape:zoom="0.49497475"
     inkscape:cx="358.94435"
     inkscape:cy="712.00668"
     inkscape:document-units="mm"
     inkscape:current-layer="layer1"
     showgrid="false"
     inkscape:window-width="1920"
     inkscape:window-height="1051"
     inkscape:window-x="3200"
     inkscape:window-y="0"
     inkscape:window-maximized="1"
     inkscape:snap-text-baseline="true"
     showguides="false" />
  <metadata
     id="metadata5">
    <rdf:RDF>
      <cc:Work
         rdf:about="">
        <dc:format>image/svg+xml</dc:format>
        <dc:type
           rdf:resource="http://purl.org/dc/dcmitype/StillImage" />
        <dc:title />
      </cc:Work>
    </rdf:RDF>
  </metadata>
  <g
     inkscape:label="Layer 1"
     inkscape:groupmode="layer"
     id="layer1"
     style="display:inline">
    <path
       style="opacity:1;fill:#fffa99;fill-opacity:1;stroke:none;stroke-width:0.14285715;stroke-miterlimit:4;stroke-dasharray:none;stroke-opacity:0"
       d="m 762.90795,504.67467 c 0,-26.65949 0.21005,-38.00531 0.64135,-34.64285 0.84902,6.61889 0.86543,61.27842 0.0206,68.57143 -0.4671,4.03223 -0.66195,-5.95492 -0.66195,-33.92858 z"
       id="path943"
       inkscape:connector-curvature="0"
       transform="scale(0.26458333)" />
    <path
       style="opacity:1;fill:#fffa99;fill-opacity:1;stroke:none;stroke-width:0.14285715;stroke-miterlimit:4;stroke-dasharray:none;stroke-opacity:0"
       d=""
       id="path945"
       inkscape:connector-curvature="0"
       transform="scale(0.26458333)" />
    <path
       style="opacity:1;fill:#fffa99;fill-opacity:1;stroke:none;stroke-width:0.14285715;stroke-miterlimit:4;stroke-dasharray:none;stroke-opacity:0"
       d=""
       id="path947"
       inkscape:connector-curvature="0"
       transform="scale(0.26458333)" />
    <path
       style="opacity:1;fill:#fffa99;fill-opacity:1;stroke:none;stroke-width:0.14285715;stroke-miterlimit:4;stroke-dasharray:none;stroke-opacity:0"
       d=""
       id="path949"
       inkscape:connector-curvature="0"
       transform="scale(0.26458333)" />
    <path
       style="opacity:1;fill:#fffa99;fill-opacity:1;stroke:none;stroke-width:0.14285715;stroke-miterlimit:4;stroke-dasharray:none;stroke-opacity:0"
       d=""
       id="path963"
       inkscape:connector-curvature="0"
       transform="scale(0.26458333)" />
    <path
       style="opacity:1;fill:#fffa99;fill-opacity:1;stroke:none;stroke-width:0.14285715;stroke-miterlimit:4;stroke-dasharray:none;stroke-opacity:0"
       d="m 709.69366,310.38896 c -0.45651,-0.85301 -0.66931,-1.71164 -0.47288,-1.90807 0.19643,-0.19643 0.73065,0.34078 1.18717,1.19378 0.45651,0.85301 0.66931,1.71164 0.47288,1.90807 -0.19642,0.19643 -0.73065,-0.34077 -1.18717,-1.19378 z"
       id="path965"
       inkscape:connector-curvature="0"
       transform="scale(0.26458333)" />
    <path
       style="opacity:1;fill:#fffa99;fill-opacity:1;stroke:none;stroke-width:0.14285715;stroke-miterlimit:4;stroke-dasharray:none;stroke-opacity:0"
       d=""
       id="path967"
       inkscape:connector-curvature="0"
       transform="scale(0.26458333)" />
    <path
       style="opacity:1;fill:#fffa99;fill-opacity:1;stroke:none;stroke-width:0.14285715;stroke-miterlimit:4;stroke-dasharray:none;stroke-opacity:0"
       d=""
       id="path969"
       inkscape:connector-curvature="0"
       transform="scale(0.26458333)" />
    <path
       style="opacity:1;fill:#fffa99;fill-opacity:1;stroke:none;stroke-width:0.14285715;stroke-miterlimit:4;stroke-dasharray:none;stroke-opacity:0"
       d=""
       id="path979"
       inkscape:connector-curvature="0"
       transform="scale(0.26458333)" />
    <path
       style="opacity:1;fill:#fffa99;fill-opacity:1;stroke:none;stroke-width:0.14285715;stroke-miterlimit:4;stroke-dasharray:none;stroke-opacity:0"
       d=""
       id="path981"
       inkscape:connector-curvature="0"
       transform="scale(0.26458333)" />
    <path
       style="opacity:1;fill:#fffa99;fill-opacity:1;stroke:none;stroke-width:0.14285715;stroke-miterlimit:4;stroke-dasharray:none;stroke-opacity:0"
       d=""
       id="path983"
       inkscape:connector-curvature="0"
       transform="scale(0.26458333)" />
    <path
       style="opacity:1;fill:#fffa99;fill-opacity:1;stroke:none;stroke-width:0.14285715;stroke-miterlimit:4;stroke-dasharray:none;stroke-opacity:0"
       d=""
       id="path985"
       inkscape:connector-curvature="0"
       transform="scale(0.26458333)" />
    <path
       style="opacity:1;fill:#fffa99;fill-opacity:1;stroke:none;stroke-width:0.03571429;stroke-miterlimit:4;stroke-dasharray:none;stroke-opacity:0"
       d="m 708.27293,307.47513 c -2.53054,-4.11909 -12.38728,-18.58651 -17.05486,-25.0326 -5.28565,-7.29967 -13.82813,-18.24744 -18.37749,-23.55202 -5.32534,-6.20937 -11.62518,-13.01181 -18.57777,-20.05988 -2.64234,-2.67863 -4.72513,-4.87024 -4.62842,-4.87024 0.26024,0 11.61553,11.50744 15.3303,15.53571 12.24943,13.28319 22.34413,25.78048 32.31007,40 5.63119,8.03466 12.56836,18.7909 12.19594,18.91009 -0.12378,0.0396 -0.26662,0.13492 -0.31743,0.21179 -0.0508,0.0769 -0.44697,-0.43741 -0.88034,-1.14285 z"
       id="path987"
       inkscape:connector-curvature="0"
       transform="scale(0.26458333)" />
    <path
       style="opacity:1;fill:#fffa99;fill-opacity:1;stroke:none;stroke-width:0.03571429;stroke-miterlimit:4;stroke-dasharray:none;stroke-opacity:0"
       d="m 713.77636,316.0333 c -0.45454,-0.5044 -1.28246,-1.66915 -1.83983,-2.58833 -0.80451,-1.32676 -1.00224,-1.79867 -0.95928,-2.28945 0.0504,-0.57611 0.18025,-0.4039 1.90672,2.52942 1.01893,1.7312 1.8225,3.17413 1.78571,3.20653 -0.0368,0.0324 -0.43878,-0.35378 -0.89332,-0.85817 z"
       id="path989"
       inkscape:connector-curvature="0"
       transform="scale(0.26458333)" />
    <path
       style="opacity:1;fill:#fffa99;fill-opacity:1;stroke:none;stroke-width:0.03571429;stroke-miterlimit:4;stroke-dasharray:none;stroke-opacity:0"
       d="m 739.87993,370.1703 c -3.50343,-8.42521 -7.76065,-17.61432 -15.41063,-33.26348 -2.01648,-4.125 -3.76563,-7.82143 -3.88699,-8.21429 -0.12137,-0.39286 -0.37305,-1.14783 -0.55929,-1.67771 -0.18624,-0.52988 -0.30398,-0.99806 -0.26164,-1.0404 0.20201,-0.20201 7.66263,14.55933 10.8052,21.37883 3.4264,7.43539 6.83254,15.49729 9.68953,22.93388 0.67653,1.76095 1.2074,3.2697 1.17971,3.35276 -0.0277,0.0831 -0.72784,-1.47825 -1.55589,-3.46959 z"
       id="path991"
       inkscape:connector-curvature="0"
       transform="scale(0.26458333)" />
    <path
       style="opacity:1;fill:#fffa99;fill-opacity:1;stroke:none;stroke-width:0.03571429;stroke-miterlimit:4;stroke-dasharray:none;stroke-opacity:0"
       d="m 762.92548,471.72825 c -0.0549,-3.06853 -0.90815,-11.99359 -1.73269,-18.125 -1.80826,-13.44659 -5.96441,-32.99206 -10.7839,-50.71429 -2.06007,-7.5753 -6.1801,-21.17694 -7.61718,-25.14694 -0.33663,-0.92994 -0.58412,-1.77458 -0.54999,-1.87698 0.0341,-0.10241 0.66914,1.53653 1.41112,3.64208 9.83119,27.89833 16.13641,55.60998 19.3375,84.98898 0.43343,3.97795 0.44414,4.30335 0.20578,6.25 -0.21383,1.74633 -0.25432,1.89327 -0.27064,0.98215 z"
       id="path993"
       inkscape:connector-curvature="0"
       transform="scale(0.26458333)" />
    <path
       style="opacity:1;fill:#fffa99;fill-opacity:1;stroke:none;stroke-width:0.03571429;stroke-miterlimit:4;stroke-dasharray:none;stroke-opacity:0"
       d="m 765.12301,509.04967 c 1.8e-4,-1.76785 0.0269,-2.46691 0.0594,-1.55346 0.0325,0.91345 0.0323,2.35987 -3.4e-4,3.21428 -0.0327,0.85441 -0.0592,0.10704 -0.059,-1.66082 z"
       id="path995"
       inkscape:connector-curvature="0"
       transform="scale(0.26458333)" />
    <path
       style="opacity:1;fill:#fffa99;fill-opacity:1;stroke:none;stroke-width:0.03571429;stroke-miterlimit:4;stroke-dasharray:none;stroke-opacity:0"
       d="m 764.09312,528.15682 c 0.11818,-6.26857 0.11848,-41.08466 4e-4,-47.32084 -0.10546,-5.56991 0.0548,-4.36444 0.51045,3.83869 0.76711,13.81127 0.55832,35.57285 -0.44717,46.60715 -0.10684,1.17248 -0.12651,0.20731 -0.0637,-3.125 z"
       id="path997"
       inkscape:connector-curvature="0"
       transform="scale(0.26458333)" />
    <path
       style="opacity:1;fill:#fffa99;fill-opacity:1;stroke:none;stroke-width:0.03571429;stroke-miterlimit:4;stroke-dasharray:none;stroke-opacity:0"
       d="m 762.38475,548.86811 c -0.008,-0.19808 0.10145,-1.80522 0.24267,-3.57143 0.14122,-1.76621 0.31514,-4.01486 0.38649,-4.99701 0.12252,-1.68648 0.13889,-1.74207 0.29468,-1.00038 0.12157,0.57879 0.0409,1.94069 -0.30668,5.17857 -0.45287,4.2186 -0.58663,5.17009 -0.61716,4.39025 z"
       id="path999"
       inkscape:connector-curvature="0"
       transform="scale(0.26458333)" />
    <path
       style="opacity:1;fill:#fffa99;fill-opacity:1;stroke:none;stroke-width:0.03571429;stroke-miterlimit:4;stroke-dasharray:none;stroke-opacity:0"
       d=""
       id="path1001"
       inkscape:connector-curvature="0"
       transform="scale(0.26458333)" />
    <path
       style="opacity:1;fill:#fffa99;fill-opacity:1;stroke:none;stroke-width:0.03571429;stroke-miterlimit:4;stroke-dasharray:none;stroke-opacity:0"
       d=""
       id="path1003"
       inkscape:connector-curvature="0"
       transform="scale(0.26458333)" />
    <path
       style="opacity:1;fill:#fffa99;fill-opacity:1;stroke:none;stroke-width:0.03571429;stroke-miterlimit:4;stroke-dasharray:none;stroke-opacity:0"
       d="m 714.78995,317.36984 c -0.15709,-0.30377 -0.21609,-0.55231 -0.13112,-0.55231 0.18108,0 0.62115,0.90019 0.49953,1.02181 -0.0455,0.0455 -0.21133,-0.16573 -0.36841,-0.4695 z"
       id="path1005"
       inkscape:connector-curvature="0"
       transform="scale(0.26458333)" />
    <path
       style="opacity:1;fill:#fffa99;fill-opacity:1;stroke:none;stroke-width:0.03571429;stroke-miterlimit:4;stroke-dasharray:none;stroke-opacity:0"
       d="m 644.69208,229.58539 c -0.63272,-0.6384 -1.07004,-1.16072 -0.97182,-1.16072 0.0982,0 0.69625,0.52232 1.32896,1.16072 0.63272,0.63839 1.07004,1.16071 0.97183,1.16071 -0.0982,0 -0.69625,-0.52232 -1.32897,-1.16071 z"
       id="path1007"
       inkscape:connector-curvature="0"
       transform="scale(0.26458333)" />
    <path
       style="opacity:1;fill:#fffa99;fill-opacity:1;stroke:none;stroke-width:0.03571429;stroke-miterlimit:4;stroke-dasharray:none;stroke-opacity:0"
       d="m 645.94208,230.7461 c 0,-0.0982 0.0851,-0.17857 0.18911,-0.17857 0.10401,0 0.13945,0.0804 0.0788,0.17857 -0.0607,0.0982 -0.1458,0.17857 -0.18911,0.17857 -0.0433,0 -0.0788,-0.0803 -0.0788,-0.17857 z"
       id="path1009"
       inkscape:connector-curvature="0"
       transform="scale(0.26458333)" />
    <path
       style="opacity:1;fill:#fffa99;fill-opacity:1;stroke:none;stroke-width:0.03571429;stroke-miterlimit:4;stroke-dasharray:none;stroke-opacity:0"
       d="m 647.7278,232.44253 c -0.92916,-0.93304 -1.6211,-1.69643 -1.53765,-1.69643 0.16526,0 3.37511,2.99764 3.47217,3.24262 0.17921,0.45233 -0.42613,-0.0315 -1.93452,-1.54619 z"
       id="path1011"
       inkscape:connector-curvature="0"
       transform="scale(0.26458333)" />
    <a
       id="a1015"
       transform="matrix(1,0,0,1.0296496,0.02686186,-6.9687789)">
      <ellipse
         ry="99.156998"
         rx="102.09695"
         cy="117.12761"
         cx="102.09696"
         id="path1013"
         style="opacity:1;fill:#393939;fill-opacity:0.8;stroke:none;stroke-width:0.05291667;stroke-miterlimit:4;stroke-dasharray:none;stroke-opacity:0" />
    </a>
    <text
       xml:space="preserve"
       style="font-style:normal;font-weight:normal;font-size:147.6385498px;line-height:1.25;font-family:sans-serif;letter-spacing:0px;word-spacing:0px;display:inline;fill:#000000;fill-opacity:1;stroke:none;stroke-width:3.69096351"
       x="19.213177"
       y="167.49982"
       id="text907-7"
       transform="scale(1.0188935,0.98145685)"><tspan
         sodipodi:role="line"
         id="tspan905-6"
         x="19.213177"
         y="167.49982"
         style="font-style:normal;font-variant:normal;font-weight:normal;font-stretch:normal;font-family:Kalam;-inkscape-font-specification:Kalam;fill:#d1baed;fill-opacity:1;stroke-width:3.69096351">P</tspan></text>
    <text
       xml:space="preserve"
       style="font-style:normal;font-weight:normal;font-size:147.6385498px;line-height:1.25;font-family:sans-serif;letter-spacing:0px;word-spacing:0px;display:inline;fill:#000000;fill-opacity:1;stroke:none;stroke-width:3.69096327"
       x="93.275856"
       y="167.49982"
       id="text907"
       transform="scale(1.0188935,0.98145685)"><tspan
         sodipodi:role="line"
         id="tspan905"
         x="93.275856"
         y="167.49982"
         style="font-style:normal;font-variant:normal;font-weight:normal;font-stretch:normal;font-family:Kalam;-inkscape-font-specification:Kalam;fill:#fffa99;fill-opacity:1;stroke-width:3.69096327">B</tspan></text>
  </g>
</svg>
